<svg xmlns="http://www.w3.org/2000/svg" viewBox="0 0 101.9 101.9"><defs><style>.cls-1{fill:none;stroke:#074b89;stroke-miterlimit:10;stroke-width:2px;}.cls-2{fill:#074b89;}.cls-3{fill:#2db5b2;}</style></defs><g id="Layer_2" data-name="Layer 2"><g id="Layer_1-2" data-name="Layer 1"><path class="cls-1" d="M51,100.9A50,50,0,1,1,100.9,51,50,50,0,0,1,51,100.9Z"/><path class="cls-2" d="M72.9,34.45l-9.7-9.7a.91.91,0,0,0-.7-.3h-22a2.69,2.69,0,0,0-2.7,2.7v5.3a18.43,18.43,0,0,0-12.8,6,18.71,18.71,0,0,0-4.8,13.3A18.08,18.08,0,0,0,25.6,64a18.28,18.28,0,0,0,12.2,5.4v5.4a2.69,2.69,0,0,0,2.7,2.7h30a2.69,2.69,0,0,0,2.7-2.7V35.15A4.88,4.88,0,0,0,72.9,34.45Zm-33.3,35A18.48,18.48,0,0,0,57.2,51a.9.9,0,0,0-.9-.9H39.6V27.15a.79.79,0,0,1,.8-.8H61.5v7a2.69,2.69,0,0,0,2.7,2.7h7v38.7a.79.79,0,0,1-.8.8h-30a.79.79,0,0,1-.8-.8Zm10.3-6.1a16.51,16.51,0,0,1-11.2,4.3h-.9a16.46,16.46,0,0,1-10.3-4.3L39,51.85H55.3A16.09,16.09,0,0,1,49.9,63.35Zm13.5-30v-5.7l6.6,6.6H64.3C63.8,34.15,63.4,33.85,63.4,33.35ZM26.3,62.15A16.45,16.45,0,0,1,22,51.05a16.69,16.69,0,0,1,15.8-16.7v16.3Z"/><path class="cls-2" d="M60.8,47.45A18.44,18.44,0,0,0,42.3,29a.9.9,0,0,0-.9.9v17.6a.9.9,0,0,0,.9.9H59.9A.9.9,0,0,0,60.8,47.45Zm-1.9-.9H43.1V30.75A16.75,16.75,0,0,1,58.9,46.55Z"/><path class="cls-3" d="M63,61.55h6.1a.47.47,0,0,0,.5-.5v-.8a.47.47,0,0,0-.5-.5H63a.47.47,0,0,0-.5.5v.8A.47.47,0,0,0,63,61.55Z"/><path class="cls-3" d="M63,66.85h6.1a.47.47,0,0,0,.5-.5v-.8a.47.47,0,0,0-.5-.5H63a.47.47,0,0,0-.5.5v.8A.47.47,0,0,0,63,66.85Z"/><path class="cls-3" d="M63,72.15h6.1a.47.47,0,0,0,.5-.5v-.8a.47.47,0,0,0-.5-.5H63a.47.47,0,0,0-.5.5v.8A.47.47,0,0,0,63,72.15Z"/></g></g></svg>