<svg xmlns="http://www.w3.org/2000/svg" viewBox="0 0 102 102"><defs><style>.cls-1{fill:none;stroke:#074b89;stroke-miterlimit:10;stroke-width:2px;}.cls-2{fill:#074b89;}.cls-3{fill:#2db5b2;}</style></defs><g id="Layer_2" data-name="Layer 2"><g id="Layer_1-2" data-name="Layer 1"><path class="cls-1" d="M51,101a50,50,0,1,1,50-50A50,50,0,0,1,51,101Z"/><path class="cls-2" d="M37.4,79.92H63a.6.6,0,0,0,.6-.3l7.8-7.8a.86.86,0,0,0,.3-.6V29.72a3,3,0,0,0-3-3H37.4a3,3,0,0,0-3,3v7.4h-.2a14,14,0,0,0,0,26.9h.2v12.7A3.06,3.06,0,0,0,37.4,79.92Zm26.5-3.1v-3.5a1.22,1.22,0,0,1,1.2-1.2h3.5ZM36.2,29.72a1.22,1.22,0,0,1,1.2-1.2H68.7a1.22,1.22,0,0,1,1.2,1.2v3.7H36.2Zm0,5.5H69.9v35H65.1a3,3,0,0,0-3,3V78H37.4a1.22,1.22,0,0,1-1.2-1.2V64.52h.3a14.12,14.12,0,0,0,12.1-4.7l.1-.1h7.1a.9.9,0,0,0,0-1.8H50l.2-.4a14.62,14.62,0,0,0,1.8-5.7v-.2h3.8a.9.9,0,0,0,0-1.8H52v-.2a13,13,0,0,0-1.7-5.7l-.2-.4h5.6a.9.9,0,0,0,0-1.8h-7l-.1-.1a14,14,0,0,0-12.3-4.9H36C36.2,36.72,36.2,35.22,36.2,35.22ZM25.9,50.72a12.2,12.2,0,1,1,12.2,12.2A12.18,12.18,0,0,1,25.9,50.72Z"/><path class="cls-3" d="M64.1,41.82H60.3a.9.9,0,0,0,0,1.8h3.8a.9.9,0,0,0,.9-.9A.84.84,0,0,0,64.1,41.82Z"/><path class="cls-3" d="M64.1,49.92H60.3a.9.9,0,1,0,0,1.8h3.8a.9.9,0,0,0,0-1.8Z"/><path class="cls-3" d="M64.1,57.92H60.3a.9.9,0,1,0,0,1.8h3.8a.9.9,0,0,0,0-1.8Z"/><path class="cls-3" d="M64.1,66.12H53.4a.9.9,0,0,0,0,1.8H64.1a.9.9,0,0,0,0-1.8Z"/><path class="cls-3" d="M43,47.62a1.09,1.09,0,0,0-1.5,0L37,52.12l-2.3-2.3a1.06,1.06,0,0,0-1.5,1.5l3.1,3.1a1.14,1.14,0,0,0,.8.3h0a1.14,1.14,0,0,0,.8-.3l5.2-5.2a1.14,1.14,0,0,0,.3-.8A2,2,0,0,0,43,47.62Z"/></g></g></svg>