<svg xmlns="http://www.w3.org/2000/svg" viewBox="0 0 102 102"><defs><style>.cls-1{fill:none;stroke:#074b89;stroke-miterlimit:10;stroke-width:2px;}.cls-2{fill:#074b89;}.cls-3{fill:#2db5b2;}</style></defs><g id="Layer_2" data-name="Layer 2"><g id="Layer_1-2" data-name="Layer 1"><path class="cls-1" d="M51,101a50,50,0,1,1,50-50A50,50,0,0,1,51,101Z"/><path class="cls-2" d="M74.74,49.54a.9.9,0,0,0,.9-.9V34.34h0a.37.37,0,0,0-.1-.3.1.1,0,0,0-.1-.1l-7.6-10.2a1,1,0,0,0-.7-.4h-32a1.23,1.23,0,0,0-.8.4l-7.1,10.2c-.1.2-.2.3-.2.5v41a.9.9,0,0,0,.9.9h23.3a.9.9,0,0,0,0-1.8H29V35.44h44.8v13.2A.9.9,0,0,0,74.74,49.54Zm-44.9-16,.1-.1,5.7-8.3h31l6.2,8.4Z"/><path class="cls-3" d="M65,52.24a9.3,9.3,0,1,0,0,18.6,9.06,9.06,0,0,0,5.5-1.8l.4-.3,6.1,6.9a.91.91,0,0,0,.7.3,1.07,1.07,0,0,0,.6-.2.94.94,0,0,0,.1-1.3l-6.2-7,.2-.3A9.38,9.38,0,0,0,65,52.24Zm5.4,14.4h0l-.2.2h0a7.42,7.42,0,1,1,2.2-5.3A6.63,6.63,0,0,1,70.44,66.64Z"/><path class="cls-2" d="M51.54,61.44H33.74a.9.9,0,0,0,0,1.8h17.8a.9.9,0,1,0,0-1.8Z"/><path class="cls-3" d="M51,42.34l-10.7,10.8-.1-.1-6-6a.91.91,0,0,0-.7-.3,1.08,1.08,0,0,0-.7.3.85.85,0,0,0,0,1.3l6.7,6.7a.86.86,0,0,0,.6.3h0a.91.91,0,0,0,.7-.3l11.4-11.4a.85.85,0,0,0,0-1.3A.91.91,0,0,0,51,42.34Z"/></g></g></svg>