<svg xmlns="http://www.w3.org/2000/svg" viewBox="0 0 102.66 102.66"><defs><style>.cls-1{fill:none;stroke:#074b89;stroke-miterlimit:10;stroke-width:2px;}.cls-2{fill:#074b89;}.cls-3{fill:#22b7b3;}</style></defs><g id="Layer_2" data-name="Layer 2"><g id="Layer_1-2" data-name="Layer 1"><path class="cls-1" d="M51.33,101.66a50.33,50.33,0,1,1,50.33-50.33A50.39,50.39,0,0,1,51.33,101.66Z"/><path class="cls-2" d="M69.31,55.9c0-1.13,0-2.26,0-3.39A3.89,3.89,0,0,0,66,48.71a4.16,4.16,0,0,0-2.68.57l-.18.1L63,49.19a4.27,4.27,0,0,0-2.56-2.38,4.12,4.12,0,0,0-3.35.42l-.18.1-.09-.19a4.53,4.53,0,0,0-.27-.54.56.56,0,0,1-.05-.08c-.06-.1-.13-.18-.19-.27a4.41,4.41,0,0,0-.35-.43l0,0-.26-.25-.14-.11-.23-.17L55,45l-.08,0-.38-.16a4.75,4.75,0,0,0-3.63.37V36.12A3.83,3.83,0,0,0,47,32.27h0a3.89,3.89,0,0,0-3.92,3.82c0,1.55,0,3.09,0,4.64v5.4c0,1.55,0,3.1,0,4.64v2L43,53l-1.13-1c-.64-.58-1.3-1.17-1.91-1.79A3.92,3.92,0,0,0,37.16,49H37a3.78,3.78,0,0,0-2.78,1.35,4.2,4.2,0,0,0-.2,4.9c.86,1.48,1.73,3.1,2.66,4.95.65,1.3,1.3,2.62,1.94,3.93.87,1.77,1.76,3.6,2.68,5.39a16.62,16.62,0,0,0,3.22,4.32,6.32,6.32,0,0,0,4.65,1.93c2.18,0,4.39,0,6.54,0h4.08a2.57,2.57,0,0,0,1-.22,15.74,15.74,0,0,0,4.47-3,12,12,0,0,0,4-9.24C69.3,60.81,69.3,58.32,69.31,55.9Zm-1.66,7.89a10.33,10.33,0,0,1-3.74,7.72c-.33.29-.67.56-1,.82l-.24.19a6.84,6.84,0,0,1-4.38,1.58H57.9c-2.7-.13-5.45-.08-8.11,0h-.67a4.47,4.47,0,0,1-3.26-1.28A16.63,16.63,0,0,1,43,69.08a68.12,68.12,0,0,1-3.43-6.69l-1-2.15c-1-2-2-4-3.08-5.87-.69-1.27-.59-2.45.28-3.18a2.17,2.17,0,0,1,3,.12c1.46,1.49,2.9,3,4.34,4.47l.11.12a.87.87,0,0,0,1.11.3c.38-.18.52-.51.44-1.06a2.17,2.17,0,0,1,0-.36V36.38a2.28,2.28,0,0,1,3.66-2,2.17,2.17,0,0,1,.83,1.72q0,3.09,0,6.18v4.75q0,3.09,0,6.18a1,1,0,0,0,.41.85.74.74,0,0,0,.75,0,.82.82,0,0,0,.5-.83c0-.81,0-1.62,0-2.42s0-1.56,0-2.34a2.09,2.09,0,0,1,1.2-2,2.21,2.21,0,0,1,2.33.15,2.08,2.08,0,0,1,1,1.83q0,3.39,0,6.77a.89.89,0,0,0,.61,1,.8.8,0,0,0,.71-.12.9.9,0,0,0,.33-.72v-1c0-1.24,0-2.51,0-3.76a2.18,2.18,0,0,1,1-1.91,2.3,2.3,0,0,1,2.17-.18,2.09,2.09,0,0,1,1.33,2v6.78a.89.89,0,0,0,.49.94.78.78,0,0,0,.77,0,.87.87,0,0,0,.39-.74c0-.79,0-1.57,0-2.35s0-1.61,0-2.41a2.41,2.41,0,0,1,.74-1.8,2.22,2.22,0,0,1,1.72-.53,2.2,2.2,0,0,1,2,2.18c0,1,0,2,0,2.93C67.67,58.2,67.68,61,67.65,63.79Z"/><path class="cls-3" d="M47,27.54A7.68,7.68,0,0,0,42.1,41.13V39.42a6.46,6.46,0,1,1,9.67.15v1.67A7.68,7.68,0,0,0,47,27.54Z"/></g></g></svg>