<svg xmlns="http://www.w3.org/2000/svg" viewBox="0 0 102 102"><defs><style>.cls-1{fill:none;stroke:#074b89;stroke-miterlimit:10;stroke-width:2px;}.cls-2{fill:#074b89;}</style></defs><g id="Layer_2" data-name="Layer 2"><g id="Layer_1-2" data-name="Layer 1"><path class="cls-1" d="M51,101a50,50,0,1,1,50-50A50,50,0,0,1,51,101Z"/><path class="cls-2" d="M83.9,61.6A7.14,7.14,0,0,0,79.6,55l-.4-.2.2-.3A6.79,6.79,0,1,0,66.8,51a6.65,6.65,0,0,0,.9,3.4l.2.4-.3.2a8.07,8.07,0,0,0-2.4,1.7l-.4.5-.2-.6a10.49,10.49,0,0,0-6-6.2l-.4-.2.3-.4a9,9,0,0,0,1.6-5.3A9.41,9.41,0,0,0,57.5,38a9,9,0,0,0-6.6-2.7,9.39,9.39,0,0,0-9.3,9.2,10,10,0,0,0,1.6,5.3l.3.4-.4.2a10.23,10.23,0,0,0-6,6.2l-.2.6-.4-.6a7.36,7.36,0,0,0-2.4-1.7l-.1-.2.2-.3a6.79,6.79,0,1,0-12.6-3.5,6.65,6.65,0,0,0,.9,3.4l.2.4-.3.2a7.35,7.35,0,0,0-4.3,6.6v4.2a.9.9,0,0,0,.9.9H82.9a1.08,1.08,0,0,0,.7-.3c.2-.2.2-.4.3-.7ZM28.2,46.1h.2A4.82,4.82,0,0,1,33.2,51a4.8,4.8,0,0,1-9.6,0A4.92,4.92,0,0,1,28.2,46.1Zm8.6,18.5v.2H20.1V61.6a5.44,5.44,0,0,1,4.1-5.2h.2l.1.1a6.45,6.45,0,0,0,7.9,0l.1-.1h.2a5.34,5.34,0,0,1,4,5.2v3Zm6.8-20.1A7.51,7.51,0,0,1,51,37.1a7.42,7.42,0,0,1,5.2,2.1,7.26,7.26,0,0,1,2.2,5.2,7.09,7.09,0,0,1-2.2,5.2A7.62,7.62,0,0,1,51,51.8,7.3,7.3,0,0,1,43.6,44.5ZM63.4,64.8H38.7V59.7a8.32,8.32,0,0,1,6.4-8h.2l.1.1a9.16,9.16,0,0,0,11.3,0l.1-.1H57a8.13,8.13,0,0,1,6.4,8Zm6.8-17.2a4.91,4.91,0,0,1,3.5-1.5,4.8,4.8,0,1,1-4.8,4.8A4.22,4.22,0,0,1,70.2,47.6ZM82,64.8H65.3V61.6a5.44,5.44,0,0,1,4.1-5.2h.2l.1.1a6.45,6.45,0,0,0,7.9,0l.1-.1h.2A5.55,5.55,0,0,1,82,61.6Z"/></g></g></svg>