<svg xmlns="http://www.w3.org/2000/svg" viewBox="0 0 102 102"><defs><style>.cls-1{fill:none;stroke:#074b89;stroke-miterlimit:10;stroke-width:2px;}.cls-2{fill:#2db5b2;}.cls-3{fill:#074b89;}</style></defs><g id="Layer_2" data-name="Layer 2"><g id="Layer_1-2" data-name="Layer 1"><path class="cls-1" d="M51,101a50,50,0,1,1,50-50A50,50,0,0,1,51,101Z"/><path class="cls-2" d="M54.49,45h0a.91.91,0,0,0-.7.3l-3.6,3.6-1.8-1.8A1,1,0,1,0,47,48.5l2.5,2.5a.91.91,0,0,0,.7.3h0a.91.91,0,0,0,.7-.3l4.3-4.3a1,1,0,0,0-.7-1.7Z"/><path class="cls-3" d="M70.79,23.9H31.59A4.59,4.59,0,0,0,27,28.5V67.8a4.41,4.41,0,0,0,3.6,4.4V74a3.69,3.69,0,0,0,3.7,3.7h8.8a3.69,3.69,0,0,0,3.7-3.7V72.3h8.8V74a3.69,3.69,0,0,0,3.7,3.7h8.8a3.69,3.69,0,0,0,3.7-3.7V72.2a4.51,4.51,0,0,0,3.7-4.5V28.5A4.88,4.88,0,0,0,70.79,23.9Zm-1.2,48.5v1.7a1.69,1.69,0,0,1-1.7,1.7h-8.8a1.69,1.69,0,0,1-1.7-1.7V72.4Zm-24.8,0v1.7a1.69,1.69,0,0,1-1.7,1.7h-8.8a1.69,1.69,0,0,1-1.7-1.7V72.4ZM29,28.5a2.65,2.65,0,0,1,2.6-2.6h39.2a2.65,2.65,0,0,1,2.6,2.6V67.8a2.65,2.65,0,0,1-2.6,2.6H31.59A2.65,2.65,0,0,1,29,67.8Z"/><path class="cls-3" d="M35.89,66.1h30.4a2.8,2.8,0,0,0,2.8-2.8v-.8a2.78,2.78,0,0,0,2.7-2.8V54.3a2.84,2.84,0,0,0-2.7-2.8V44.6a2.78,2.78,0,0,0,2.7-2.8V36.4a2.84,2.84,0,0,0-2.7-2.8v-.8a2.8,2.8,0,0,0-2.8-2.8H35.89a2.8,2.8,0,0,0-2.8,2.8V63.2A2.82,2.82,0,0,0,35.89,66.1Zm30.5-6.3V54.4a.79.79,0,0,1,.8-.8H69a.79.79,0,0,1,.8.8v5.4a.79.79,0,0,1-.8.8h-1.8A.79.79,0,0,1,66.39,59.8Zm3.4-17.9a.79.79,0,0,1-.8.8h-1.8a.79.79,0,0,1-.8-.8V36.5a.79.79,0,0,1,.8-.8H69a.79.79,0,0,1,.8.8Zm-2.7-8.1a2.78,2.78,0,0,0-2.7,2.8V42a2.84,2.84,0,0,0,2.7,2.8v7a2.78,2.78,0,0,0-2.7,2.8V60a2.84,2.84,0,0,0,2.7,2.8v.8a.79.79,0,0,1-.8.8H35.89a.79.79,0,0,1-.8-.8V33a.79.79,0,0,1,.8-.8h30.4a.79.79,0,0,1,.8.8Z"/><path class="cls-2" d="M55.19,38.2a10.85,10.85,0,0,0-8.3,0A11,11,0,0,0,41,44.1a10.85,10.85,0,0,0,0,8.3,11.15,11.15,0,0,0,5.8,5.9,9.68,9.68,0,0,0,4.1.8,11.5,11.5,0,0,0,4.1-.8,11.15,11.15,0,0,0,5.9-5.8,10.85,10.85,0,0,0,0-8.3A9.69,9.69,0,0,0,55.19,38.2Zm2.4,12.7a1,1,0,0,0,.5,1.3l.7.3a8.44,8.44,0,0,1-3.5,3.5l-.3-.7a1.21,1.21,0,0,0-.5-.5.85.85,0,0,0-.7,0,1.21,1.21,0,0,0-.5.5.85.85,0,0,0,0,.7l.3.8a8.52,8.52,0,0,1-5,0l.3-.7a1,1,0,1,0-1.8-.8l-.3.7a8.44,8.44,0,0,1-3.5-3.5l.7-.3a1.21,1.21,0,0,0,.5-.5.85.85,0,0,0,0-.7,1.21,1.21,0,0,0-.5-.5.85.85,0,0,0-.7,0l-.8.3a8.52,8.52,0,0,1,0-5l.7.2a1,1,0,0,0,.8-1.8l-.7-.3a9.78,9.78,0,0,1,3.5-3.5l.3.7a1.21,1.21,0,0,0,.5.5.85.85,0,0,0,.7,0,1.21,1.21,0,0,0,.5-.5.85.85,0,0,0,0-.7l-.3-.8a8.52,8.52,0,0,1,5,0l-.3.7a1,1,0,0,0,1.8.8l.3-.7a8.44,8.44,0,0,1,3.5,3.5l-.7.3a1.21,1.21,0,0,0-.5.5.85.85,0,0,0,0,.7,1.21,1.21,0,0,0,.5.5.85.85,0,0,0,.7,0l.8-.3a8.52,8.52,0,0,1,0,5l-.7-.3A1.14,1.14,0,0,0,57.59,50.9Z"/></g></g></svg>