<svg xmlns="http://www.w3.org/2000/svg" viewBox="0 0 102.99 102.99"><defs><style>.cls-1{fill:#074b89;}.cls-2{fill:#22b7b3;}</style></defs><g id="Layer_2" data-name="Layer 2"><g id="Layer_1-2" data-name="Layer 1"><path class="cls-1" d="M29.61,65.77h1.86l-3.62-22L43.06,60.07a.89.89,0,0,0,.75.29A.92.92,0,0,0,44.5,60l7-10.81,7,10.81a.9.9,0,0,0,.69.41.89.89,0,0,0,.75-.29L75.14,43.76l-3.62,22h1.86l4.06-24.71a.92.92,0,0,0-1.58-.77L59.39,58,52.26,47a.94.94,0,0,0-1.54,0L43.6,58,27.12,40.29a.91.91,0,0,0-1.08-.2.93.93,0,0,0-.5,1Z"/><path class="cls-2" d="M51.49,48.11a.91.91,0,0,1-.72-.35l-3.56-4.54a.89.89,0,0,1,0-1.13l3.56-4.54a1,1,0,0,1,1.44,0l3.57,4.54a.92.92,0,0,1,0,1.13l-3.57,4.54A.91.91,0,0,1,51.49,48.11ZM49.1,42.66l2.39,3.05,2.4-3.05-2.4-3Z"/><path class="cls-1" d="M51.49,103A51.5,51.5,0,1,1,103,51.49,51.55,51.55,0,0,1,51.49,103Zm0-100.69a49.19,49.19,0,1,0,49.19,49.19A49.25,49.25,0,0,0,51.49,2.3Z"/></g></g></svg>