<svg xmlns="http://www.w3.org/2000/svg" viewBox="0 0 102 102"><defs><style>.cls-1{fill:none;stroke:#074b89;stroke-miterlimit:10;stroke-width:2px;}.cls-2{fill:#2db5b2;}.cls-3{fill:#074b89;}</style></defs><g id="Layer_2" data-name="Layer 2"><g id="Layer_1-2" data-name="Layer 1"><path class="cls-1" d="M51,101a50,50,0,1,1,50-50A50,50,0,0,1,51,101Z"/><path class="cls-2" d="M72.38,51.55h-2.3a.47.47,0,0,0-.5.5v1a.47.47,0,0,0,.5.5h.3a.47.47,0,0,1,.5.5v2a.47.47,0,0,1-.5.5h-.3a.47.47,0,0,0-.5.5v1a.47.47,0,0,0,.5.5h2.3a.47.47,0,0,0,.5-.5v-5.9C72.88,51.75,72.68,51.55,72.38,51.55Z"/><path class="cls-2" d="M27.38,58.35h30.5a.47.47,0,0,0,.5-.5v-1a.47.47,0,0,0-.5-.5H29.28a.47.47,0,0,1-.5-.5v-2a.47.47,0,0,1,.5-.5h28.6a.47.47,0,0,0,.5-.5v-1a.47.47,0,0,0-.5-.5H27.38a.47.47,0,0,0-.5.5v5.9C26.88,58.15,27.08,58.35,27.38,58.35Z"/><path class="cls-2" d="M37,46.65h-9.8a.47.47,0,0,0-.5.5v1a.47.47,0,0,0,.5.5H37a.47.47,0,0,0,.5-.5v-1C37.38,46.85,37.18,46.65,37,46.65Z"/><path class="cls-2" d="M70.18,62.75h2.5a.47.47,0,0,0,.5-.5v-1a.47.47,0,0,0-.5-.5h-2.5a.47.47,0,0,0-.5.5v1A.47.47,0,0,0,70.18,62.75Z"/><path class="cls-2" d="M48.78,62.75h9.1a.47.47,0,0,0,.5-.5v-1a.47.47,0,0,0-.5-.5h-9.1a.47.47,0,0,0-.5.5v1A.47.47,0,0,0,48.78,62.75Z"/><path class="cls-2" d="M27.18,62.75h2.5a.47.47,0,0,0,.5-.5v-1a.47.47,0,0,0-.5-.5h-2.5a.47.47,0,0,0-.5.5v1A.47.47,0,0,0,27.18,62.75Z"/><path class="cls-3" d="M76.38,42.05h-8.9a.65.65,0,0,1-.6-.6V24.65a.68.68,0,0,0-.7-.7H61a.68.68,0,0,0-.7.7v2.1a.65.65,0,0,1-.6.6h-2.4a.68.68,0,0,0-.7.7v10.8a.68.68,0,0,0,.7.7h.4a.68.68,0,0,0,.7-.7v-9a.65.65,0,0,1,.6-.6h.7a.65.65,0,0,1,.6.6v11.6a.65.65,0,0,1-.6.6H23.38a.68.68,0,0,0-.7.7v23.7a.68.68,0,0,0,.7.7h36.3a.65.65,0,0,1,.6.6v4.6l1.4,4.2v.1h3.2a.75.75,0,0,0,.7-.5l1.2-3.8v-4.7a.65.65,0,0,1,.6-.6h8.9c.2,0,.4,0,.5-.2s.2-.3.2-.6V42.85C77.18,42.45,76.78,42.05,76.38,42.05Zm-1.2,2.5v20.2a.65.65,0,0,1-.6.6h-7.1a.65.65,0,0,1-.6-.6V44.55a.65.65,0,0,1,.6-.6h7.2A.56.56,0,0,1,75.18,44.55Zm-13,6.8V29.85a.65.65,0,0,1,.6-.6h1.7a.6.6,0,0,1,.4.1.76.76,0,0,1,.2.4v25.7h0v14.2a.65.65,0,0,1-.6.6h-1.8a.65.65,0,0,1-.6-.6V51.45Zm2.2-24h-1.7a.65.65,0,0,1-.6-.6v-.3a.65.65,0,0,1,.6-.6h1.8a.37.37,0,0,1,.3.1.76.76,0,0,1,.2.4v.4A.58.58,0,0,1,64.38,27.35Zm-1.9,45a.55.55,0,0,1,.5-.3h1.2a.76.76,0,0,1,.5.2c.1.2.2.4.1.5l-.6,1.7a.55.55,0,0,1-.6.4h-.1a.68.68,0,0,1-.6-.4l-.5-1.6A.9.9,0,0,1,62.48,72.35Zm-37.3-7a.65.65,0,0,1-.6-.6V44.55a.65.65,0,0,1,.6-.6h34.5a.65.65,0,0,1,.6.6v20.2h0a.6.6,0,0,1-.1.4.76.76,0,0,1-.4.2Z"/></g></g></svg>