<svg xmlns="http://www.w3.org/2000/svg" viewBox="0 0 102 102"><defs><style>.cls-1{fill:none;stroke:#074b89;stroke-miterlimit:10;stroke-width:2px;}.cls-2{fill:#074b89;}.cls-3{fill:#2db5b2;}</style></defs><g id="Layer_2" data-name="Layer 2"><g id="Layer_1-2" data-name="Layer 1"><path class="cls-1" d="M51,101a50,50,0,1,1,50-50A50,50,0,0,1,51,101Z"/><path class="cls-2" d="M59.8,50.55a.75.75,0,0,1,.5.1v-2.9a.65.65,0,0,0-.6-.6H52.4a.65.65,0,0,0-.6.6v7.3a.65.65,0,0,0,.6.6h2.9a1.7,1.7,0,0,1,1-1.3c0-.2-.1-.3-.1-.5H54.3a.68.68,0,0,1-.7-.7v-3.4a.68.68,0,0,1,.7-.7h3.4a.68.68,0,0,1,.7.7v1.4A1.84,1.84,0,0,1,59.8,50.55Z"/><path class="cls-3" d="M67.5,55.25a1,1,0,0,0-1,1v7.3a1,1,0,0,0,1,1h7.3a1,1,0,0,0,1-1,1.08,1.08,0,0,0-1-1H69.7a1.11,1.11,0,0,1-1.1-1.1v-5.1A1.17,1.17,0,0,0,67.5,55.25Z"/><path class="cls-3" d="M67.5,48a15.6,15.6,0,1,0,15.6,15.6A15.62,15.62,0,0,0,67.5,48Zm0,29.1A13.55,13.55,0,1,1,81,63.55,13.72,13.72,0,0,1,67.5,77.05Z"/><path class="cls-2" d="M42.3,47.15H35a.65.65,0,0,0-.6.6v7.3a.65.65,0,0,0,.6.6h7.3a.65.65,0,0,0,.6-.6v-7.3A.58.58,0,0,0,42.3,47.15ZM41,53.05a.68.68,0,0,1-.7.7H36.9a.68.68,0,0,1-.7-.7v-3.4a.68.68,0,0,1,.7-.7h3.4a.68.68,0,0,1,.7.7Z"/><path class="cls-2" d="M42.3,59.35H35a.65.65,0,0,0-.6.6v7.3a.65.65,0,0,0,.6.6h7.3a.65.65,0,0,0,.6-.6V60A.58.58,0,0,0,42.3,59.35ZM41,65.25a.68.68,0,0,1-.7.7H36.9a.68.68,0,0,1-.7-.7v-3.4a.68.68,0,0,1,.7-.7h3.4a.68.68,0,0,1,.7.7Z"/><path class="cls-2" d="M75.7,41.65V27.05a.9.9,0,0,0-.9-.9h-51a.9.9,0,0,0-.9.9v43.7a.9.9,0,0,0,.9.9H45.7a.9.9,0,1,0,0-1.8h-20a1,1,0,0,1-1-1V43.65a1,1,0,0,1,1-1H74.8A1.06,1.06,0,0,0,75.7,41.65Zm-1.9-1.9a1,1,0,0,1-1,1H25.7a1,1,0,0,1-1-1V29.05a1,1,0,0,1,1-1H72.8a1,1,0,0,1,1,1Z"/></g></g></svg>