<svg xmlns="http://www.w3.org/2000/svg" viewBox="0 0 100.8 100.8"><defs><style>.cls-1{fill:#074b89;}.cls-2{fill:#2db5b2;}</style></defs><g id="Layer_2" data-name="Layer 2"><g id="Layer_1-2" data-name="Layer 1"><path class="cls-1" d="M50.4,100.8a50.4,50.4,0,1,1,50.4-50.4A50.48,50.48,0,0,1,50.4,100.8Zm0-98.53A48.13,48.13,0,1,0,98.53,50.4,48.16,48.16,0,0,0,50.4,2.27Z"/><path class="cls-2" d="M55.7,53.53a.76.76,0,0,0-.41-.55.82.82,0,0,0-1.21.25l-4.8,7.22L46.66,58a1,1,0,0,0-.66-.26.89.89,0,0,0-.65.31.83.83,0,0,0,0,1.26l3.38,3.23a.93.93,0,0,0,.61.25h.1a.91.91,0,0,0,.65-.4s5.31-8,5.41-8.13A.92.92,0,0,0,55.7,53.53Z"/><path class="cls-1" d="M64.54,50.5a7,7,0,0,1-4.29-5.86,1.67,1.67,0,0,0-1.72-1.51L42,43.23A1.63,1.63,0,0,0,40.3,44.8a7,7,0,0,1-4.24,5.9,2.05,2.05,0,0,0-1.21,2.08c.4,3.73,2.62,16.31,15,22.12a1.8,1.8,0,0,0,.55.1,1.87,1.87,0,0,0,.56-.1c12.37-6,14.44-18.54,14.79-22.28A2.08,2.08,0,0,0,64.54,50.5ZM64,52.37c-.31,3.49-2.28,15.2-13.54,20.71C39.09,67.72,37,56,36.66,52.52a.18.18,0,0,1,.16-.2A8.81,8.81,0,0,0,42.12,45l16.36-.1a8.64,8.64,0,0,0,5.41,7.22C63.94,52.22,64,52.27,64,52.37Z"/><path class="cls-1" d="M70.35,45.4v-.25A18.6,18.6,0,0,0,51.77,26.56c-2.08,0-12.63.56-17,11.11A13,13,0,0,0,35,63.73a.91.91,0,1,0,0-1.81,11.22,11.22,0,0,1,0-22.43c.7,0,1.11-.2,1.26-.55A17.16,17.16,0,0,1,51.82,28.38,16.85,16.85,0,0,1,68.58,45.15c0,1.26,0,2,1.11,2h0a7.38,7.38,0,0,1,0,14.75H65.75a.91.91,0,0,0,0,1.81h3.94a9.23,9.23,0,0,0,9.2-9.19A9.33,9.33,0,0,0,70.35,45.4Z"/></g></g></svg>