<svg xmlns="http://www.w3.org/2000/svg" viewBox="0 0 102 102"><defs><style>.cls-1{fill:none;stroke:#074b89;stroke-miterlimit:10;stroke-width:2px;}.cls-2{fill:#2db5b2;}.cls-3{fill:#074b89;}.cls-4{fill:#fff;}</style></defs><g id="Layer_2" data-name="Layer 2"><g id="Layer_1-2" data-name="Layer 1"><path class="cls-1" d="M51,101a50,50,0,1,1,50-50A50,50,0,0,1,51,101Z"/><path class="cls-2" d="M67.9,56a.85.85,0,0,0-.6-.2c-.6,0-.9.4-.9,1v6.6H64V58.3c0-.6-.3-1-.8-1h0c-.6,0-.9.3-.9,1v5.2H59.9v-8c0-.8-.1-1.2-.8-1.3a.73.73,0,0,0-.6.2,1.61,1.61,0,0,0-.3,1.1v7.9H55.9V57.8a1,1,0,0,0-.3-.8.85.85,0,0,0-.6-.2h0c-.6,0-.8.3-.8,1v6.4c0,.7.3,1,1,1h12a1,1,0,0,0,1.1-1.1V56.8A2,2,0,0,0,67.9,56Z"/><path class="cls-2" d="M65.8,36.7H56.4a1.84,1.84,0,0,0-2,2v2a1.78,1.78,0,0,0,1.9,1.9H66a1.86,1.86,0,0,0,2-1.9v-2C68,37.3,67.1,36.7,65.8,36.7Zm.2,3.9c-.2.3-.7.3-1.6.3H56.1V38.6H66A6.62,6.62,0,0,1,66,40.6Z"/><path class="cls-2" d="M45.7,59.4H36.3a1.84,1.84,0,0,0-2,2v2a1.78,1.78,0,0,0,1.9,1.9h9.7a1.86,1.86,0,0,0,2-1.9v-2A2.05,2.05,0,0,0,45.7,59.4Zm.2,3.8h0c-.2.3-.7.3-1.6.3H36.1V61.2H46v.2c0,.1.1.1.1.2C46.1,62.5,46.1,63,45.9,63.2Z"/><path class="cls-2" d="M41,36.7h0a5.22,5.22,0,0,0-3.9,1.7,5.28,5.28,0,0,0-1.6,3.9,5.64,5.64,0,0,0,5.6,5.5A5.52,5.52,0,0,0,45,46.2a5.59,5.59,0,0,0-4-9.5Zm0,8.5h0a3.06,3.06,0,0,1-3-2.9,2.72,2.72,0,0,1,.9-2.1,2.88,2.88,0,0,1,2.1-.9h0a3,3,0,0,1,0,5.9Z"/><path class="cls-2" d="M67,28.5H63a.8.8,0,1,0,0,1.6h4a.8.8,0,0,0,0-1.6Z"/><path class="cls-3" d="M20.2,73.1l-1.1.9a2,2,0,0,0,1.3,3.6H81.6a1.93,1.93,0,0,0,2.1-1.3,2,2,0,0,0-.8-2.3c-.6-.5-5.7-4.4-6.1-5.2a6.1,6.1,0,0,1-.3-2.7v-23c0-1.8-.6-2.4-2.4-2.4H72.4V27.3a2.89,2.89,0,0,0-3.1-3.1H32.8a3,3,0,0,0-3.3,3.3V40.7H28.1c-2.2,0-2.7.5-2.7,2.8V67.8a2,2,0,0,1-.7,1.6C23.1,70.7,21.6,72,20.2,73.1ZM31.3,27.2c0-.63.7-.9,1.2-1.1a3.75,3.75,0,0,1,1.1-.1H68.9c1.6,0,1.9.3,1.9,2v4.5H31.3V27.2ZM50,34.4V50H31.3V34.4ZM27.2,42.7h2.3V65.1a1.33,1.33,0,0,0,.3,1,1,1,0,0,0,1.2,0,1.33,1.33,0,0,0,.3-1V52H50.2V65.1a1.33,1.33,0,0,0,.3,1,.85.85,0,0,0,.6.2h0a.85.85,0,0,0,.6-.2,1.33,1.33,0,0,0,.3-1V34.4H70.9V48h0V65a1.33,1.33,0,0,0,.3,1,.85.85,0,0,0,.6.2h0a.85.85,0,0,0,.6-.2,1.33,1.33,0,0,0,.3-1V42.6H75v26H27.2ZM25.5,71.1a2.49,2.49,0,0,1,1.9-.7H73a6,6,0,0,1,4.8,1.8c.8.8,3.6,3.1,4,3.5l.3.3H19.9l.3-.3C20.3,75.6,24.5,71.9,25.5,71.1Z"/><rect class="cls-4" x="56.09" y="38.6" width="10.03" height="2.3"/><rect class="cls-4" x="36.1" y="61.19" width="10.03" height="2.3"/></g></g></svg>